<svg width="24" height="24" viewBox="0 0 24 24" fill="none" xmlns="http://www.w3.org/2000/svg">
<path fill-rule="evenodd" clip-rule="evenodd" d="M14.7911 11.8357C13.8441 12.4534 13.5609 12.9865 13.5292 14.21C13.5263 14.3441 13.4177 14.4494 13.2845 14.4494H10.7751C10.7083 14.4494 10.5304 14.2711 10.5304 14.2042V13.2058C10.5304 12.1582 11.0948 11.2367 12.2596 10.3872C12.3509 10.3243 13.223 9.75412 13.223 8.96764C13.223 8.31529 12.7326 7.85956 12.0293 7.85956C11.0275 7.85956 10.4689 8.36192 10.4155 9.3205C10.4079 9.44981 10.3007 9.55125 10.1709 9.55125H10.0406H7.53218C7.46536 9.55125 7.39999 9.52336 7.35432 9.47481C7.30865 9.42674 7.28365 9.36088 7.2875 9.29406C7.42402 6.63369 9.15269 5.10737 12.0322 5.10737C14.2152 5.10737 16.5664 6.29189 16.5664 8.89313C16.5664 10.6358 16.1688 10.9651 14.7911 11.8357V11.8357ZM11.9998 0C5.37302 0 0 5.37265 0 12C0 18.6278 5.37302 24 11.9998 24C18.627 24 24 18.6278 24 12C24 5.37265 18.627 0 11.9998 0V0ZM14.0041 19.3468C14.0041 19.6165 13.7844 19.8367 13.5147 19.8367H10.5299C10.2602 19.8367 10.04 19.6165 10.04 19.3468V16.4081C10.04 16.1384 10.2602 15.9182 10.5299 15.9182H13.5147C13.7844 15.9182 14.0041 16.1384 14.0041 16.4081V19.3468Z" fill="#888888"/>
</svg>
