<svg width="24" height="24" viewBox="0 0 24 24" fill="none" xmlns="http://www.w3.org/2000/svg">
<path fill-rule="evenodd" clip-rule="evenodd" d="M23.078 10.1535H21.9705C21.463 10.1535 20.924 9.757 20.7735 9.2715L20.1365 7.726C19.8985 7.2795 19.996 6.6185 20.3535 6.26L21.1405 5.475C21.5 5.1145 21.5 4.5275 21.1405 4.168L19.832 2.8625C19.4745 2.503 18.8865 2.503 18.528 2.8625L17.7405 3.6485C17.3825 4.007 16.7205 4.1045 16.2735 3.8645L14.7305 3.2285C14.246 3.0795 13.8485 2.54 13.8485 2.0315V0.924C13.8485 0.4165 13.4325 0 12.924 0H11.078C10.57 0 10.154 0.4165 10.154 0.924V2.0315C10.154 2.54 9.7575 3.0795 9.2735 3.2285L7.7285 3.8645C7.279 4.1055 6.621 4.008 6.2615 3.6485L5.4745 2.8625C5.1155 2.503 4.529 2.503 4.17 2.8625L2.8655 4.168C2.504 4.5265 2.504 5.1145 2.8655 5.474L3.6485 6.26C4.0075 6.6185 4.1075 7.2795 3.8655 7.726L3.2305 9.273C3.078 9.758 2.541 10.1545 2.033 10.1545L0.9235 10.1535C0.416 10.1535 0 10.5685 0 11.077V12.923C0 13.431 0.416 13.846 0.9235 13.846H2.033C2.541 13.847 3.078 14.2455 3.2285 14.7295L3.8655 16.2755C4.1065 16.723 4.0075 17.384 3.6485 17.7425L2.863 18.5275C2.504 18.887 2.504 19.473 2.863 19.8345L4.17 21.1395C4.529 21.499 5.1155 21.499 5.4745 21.1395L6.2615 20.3545C6.62 19.9965 7.279 19.8985 7.7245 20.14L9.2735 20.7765C9.7575 20.926 10.154 21.465 10.154 21.973V23.0785C10.154 23.585 10.57 24 11.078 24H12.924C13.4325 24 13.8485 23.585 13.8485 23.0785V21.973C13.8485 21.465 14.246 20.926 14.7305 20.7765L16.278 20.14C16.7245 19.8985 17.385 19.9965 17.745 20.3545L18.528 21.1395C18.8865 21.499 19.4745 21.499 19.832 21.1395L21.1405 19.8345C21.5 19.473 21.5 18.887 21.1405 18.5275L20.3535 17.7425C19.996 17.384 19.8985 16.723 20.1365 16.2755L20.7735 14.7295C20.924 14.2455 21.4655 13.847 21.9705 13.847H23.078C23.586 13.847 24 13.433 24 12.924V11.077C24 10.5685 23.586 10.1535 23.078 10.1535ZM12.004 16.6145C9.453 16.6145 7.387 14.549 7.387 11.999C7.387 9.4505 9.453 7.383 12.004 7.383C14.5525 7.383 16.62 9.4505 16.62 11.999C16.62 14.549 14.5525 16.6145 12.004 16.6145Z" fill="#888888"/>
</svg>
